<?xml version="1.0" standalone="no"?>
<!DOCTYPE svg PUBLIC "-//W3C//DTD SVG 20010904//EN"
 "http://www.w3.org/TR/2001/REC-SVG-20010904/DTD/svg10.dtd">
<svg version="1.0" xmlns="http://www.w3.org/2000/svg"
 width="350.000000pt" height="350.000000pt" viewBox="0 0 350.000000 350.000000"
 preserveAspectRatio="xMidYMid meet">
<metadata>
Created by potrace 1.14, written by Peter Selinger 2001-2017
</metadata>
<g transform="translate(0.000000,350.000000) scale(0.100000,-0.100000)"
fill="#000000" stroke="none">
<path d="M2735 3060 c-365 -13 -732 -50 -1030 -105 -168 -31 -178 -34 -172
-48 2 -7 75 -220 163 -474 87 -255 163 -463 169 -463 5 0 116 109 247 242
l236 243 66 -65 66 -65 -247 -247 c-166 -166 -242 -249 -232 -252 7 -3 223
-77 479 -165 316 -108 467 -155 471 -147 9 15 55 273 73 406 40 291 66 660 66
941 l0 196 -46 7 c-26 3 -59 5 -73 4 -14 0 -120 -4 -236 -8z"/>
<path d="M1230 2836 c-141 -49 -280 -116 -280 -135 0 -9 94 -290 209 -625
l208 -609 172 168 c94 92 171 172 171 178 0 8 -334 984 -355 1040 -9 22 -12
22 -125 -17z"/>
<path d="M723 2527 c-151 -162 -263 -387 -310 -625 -25 -129 -23 -366 6 -499
39 -188 121 -372 227 -512 l56 -74 -201 -201 c-111 -111 -201 -206 -201 -211
0 -13 122 -135 135 -135 5 0 100 90 211 201 l201 201 74 -56 c146 -111 353
-199 543 -233 120 -21 334 -20 456 1 175 31 354 104 507 207 86 58 197 159
186 169 -9 9 -1244 430 -1259 430 -5 0 -122 -112 -259 -250 l-250 -250 -62 62
-63 63 208 210 c114 115 227 231 251 256 l43 47 -212 618 c-117 341 -215 625
-219 632 -5 9 -26 -6 -68 -51z"/>
<path d="M1665 1510 l-169 -169 28 -11 c15 -5 293 -101 617 -211 457 -156 593
-198 604 -189 28 23 169 381 154 393 -7 6 -1044 357 -1054 357 -6 0 -86 -76
-180 -170z"/>
</g>
</svg>
