<?xml version="1.0" standalone="no"?>
<!DOCTYPE svg PUBLIC "-//W3C//DTD SVG 20010904//EN"
 "http://www.w3.org/TR/2001/REC-SVG-20010904/DTD/svg10.dtd">
<svg version="1.0" xmlns="http://www.w3.org/2000/svg"
 width="657.000000pt" height="657.000000pt" viewBox="0 0 657.000000 657.000000"
 preserveAspectRatio="xMidYMid meet">
<metadata>
Created by potrace 1.14, written by Peter Selinger 2001-2017
</metadata>
<g transform="translate(0.000000,657.000000) scale(0.100000,-0.100000)"
fill="#000000" stroke="none">
<path d="M3060 6564 c-654 -58 -1220 -266 -1723 -634 -635 -465 -1088 -1161
-1260 -1940 -213 -959 27 -1981 648 -2755 418 -521 1008 -911 1665 -1100 140
-40 321 -77 495 -101 183 -25 617 -25 800 0 582 80 1093 283 1548 616 635 465
1088 1161 1260 1940 213 959 -27 1981 -648 2755 -418 521 -1008 911 -1665
1100 -136 39 -328 78 -490 100 -110 15 -532 28 -630 19z"/>
</g>
</svg>
